<?xml version="1.0" standalone="no"?>
<!DOCTYPE svg PUBLIC "-//W3C//DTD SVG 20010904//EN"
 "http://www.w3.org/TR/2001/REC-SVG-20010904/DTD/svg10.dtd">
<svg version="1.0" xmlns="http://www.w3.org/2000/svg"
 width="1000.000000pt" height="1000.000000pt" viewBox="0 0 1000.000000 1000.000000"
 preserveAspectRatio="xMidYMid meet">

<g transform="translate(0.000000,1000.000000) scale(0.100000,-0.100000)"
fill="#000000" stroke="none">
<path d="M0 5000 l0 -5000 5000 0 5000 0 0 5000 0 5000 -5000 0 -5000 0 0
-5000z m5130 3815 c110 -29 196 -87 265 -178 138 -181 133 -429 -13 -614 -52
-65 -147 -128 -234 -154 -58 -18 -88 -21 -172 -17 -93 4 -109 8 -181 43 -149
71 -252 211 -278 374 -36 237 123 483 354 545 70 19 190 20 259 1z m-791 -430
c38 -19 53 -62 36 -102 -24 -57 -75 -68 -124 -27 l-31 26 -323 -4 c-295 -4
-330 -6 -417 -28 -241 -58 -441 -186 -589 -374 -93 -119 -139 -211 -189 -376
-25 -84 -26 -89 -31 -539 -6 -418 -7 -455 -23 -465 -13 -8 -23 -8 -35 0 -17
10 -18 42 -18 440 1 398 2 436 22 524 93 425 398 742 823 858 92 25 107 26
440 30 314 3 347 5 365 22 19 17 40 27 58 29 4 1 21 -6 36 -14z m1422 -15 c15
-17 39 -18 365 -22 340 -4 352 -5 449 -31 120 -33 295 -116 387 -186 228 -173
367 -393 434 -686 21 -90 33 -899 15 -934 -13 -23 -43 -28 -59 -8 -7 8 -12
167 -14 457 -4 416 -6 450 -26 522 -120 434 -461 734 -897 787 -49 6 -211 11
-359 11 l-268 0 -30 -25 c-39 -33 -73 -32 -109 4 -33 33 -37 65 -13 99 31 45
93 51 125 12z m-1141 -489 c135 -110 343 -157 518 -116 74 18 188 73 236 115
l35 31 513 -3 513 -4 71 -26 c90 -33 127 -52 189 -98 113 -85 198 -202 243
-334 l27 -81 3 -1356 2 -1356 -32 -14 c-48 -20 -126 -96 -156 -154 l-27 -50
-3 -507 -3 -508 55 0 c40 0 55 4 60 16 4 9 6 226 6 482 l-1 466 24 45 c27 54
97 106 156 116 l39 6 4 127 c3 122 5 129 37 190 40 74 86 115 159 142 192 72
386 -62 400 -276 4 -60 8 -74 21 -74 45 0 132 -74 169 -145 l27 -50 0 -605 c0
-601 0 -605 -22 -652 -12 -25 -39 -65 -60 -89 -36 -40 -120 -89 -154 -89 -12
0 -18 -13 -23 -42 -11 -69 -71 -181 -131 -244 -45 -48 -52 -60 -42 -73 33 -44
212 -257 280 -335 88 -100 107 -137 107 -210 0 -84 -44 -162 -155 -275 -52
-52 -95 -97 -95 -98 0 -1 56 -64 125 -139 69 -75 128 -148 131 -161 4 -14 -1
-33 -11 -49 -15 -23 -22 -25 -58 -21 -23 2 -92 10 -154 18 -168 19 -503 -10
-708 -62 -153 -39 -141 -42 -227 50 l-75 81 -119 -59 c-432 -211 -950 -321
-1520 -321 -561 0 -1088 113 -1515 325 l-113 56 -70 -76 c-80 -89 -98 -98
-145 -79 -140 58 -633 109 -811 84 -180 -25 -176 -25 -195 4 -11 16 -15 35
-11 50 3 13 62 85 131 161 69 75 125 138 125 139 0 2 -42 45 -93 97 -122 123
-161 197 -155 293 5 78 -1 69 231 341 l168 197 -60 63 c-63 68 -103 139 -124
223 -13 52 -15 54 -70 77 -79 32 -121 70 -159 145 l-33 65 0 610 0 610 22 41
c38 71 128 144 178 144 12 0 15 13 15 63 0 95 24 152 90 219 62 62 124 88 209
88 106 0 217 -73 268 -177 24 -50 28 -71 31 -178 l4 -121 57 -16 c65 -20 115
-63 142 -122 17 -38 19 -75 19 -518 l0 -478 60 0 61 0 -3 503 c-3 490 -4 503
-25 549 -28 61 -92 129 -148 159 l-45 24 0 1336 c0 1297 1 1338 20 1413 49
191 177 349 355 437 132 65 151 67 695 68 l485 1 35 -29z m-1964 -1568 c9 -27
22 -53 28 -59 9 -10 81 -22 131 -24 5 0 -12 -22 -38 -48 -50 -51 -55 -68 -36
-135 6 -22 8 -41 6 -44 -3 -2 -27 10 -55 26 -27 17 -55 31 -62 31 -7 0 -35
-14 -62 -31 -28 -16 -52 -28 -55 -26 -2 3 1 32 8 66 l13 61 -48 49 -47 48 38
6 c21 4 51 7 66 7 25 0 32 7 54 60 15 33 30 60 34 60 4 0 15 -21 25 -47z
m4741 -5 c11 -29 26 -55 34 -60 8 -4 41 -10 73 -13 l60 -7 -52 -50 c-33 -32
-51 -56 -48 -67 18 -60 27 -104 23 -108 -3 -2 -27 10 -55 26 -27 17 -54 31
-61 31 -6 0 -37 -14 -68 -32 l-56 -32 7 35 c21 101 22 97 -28 148 l-47 48 38
6 c21 4 51 7 66 7 28 0 34 8 68 98 13 34 25 27 46 -30z m-4738 -439 c26 -67
23 -65 106 -74 l59 -7 -48 -46 c-46 -44 -48 -47 -42 -89 3 -23 9 -55 12 -69
l7 -26 -61 33 -62 34 -54 -29 c-31 -17 -58 -27 -62 -23 -3 3 -1 20 5 38 20 58
14 80 -35 130 l-47 47 44 6 c24 3 55 7 69 8 20 3 29 14 50 65 14 35 27 63 30
63 3 0 16 -27 29 -61z m4736 4 c25 -66 32 -73 79 -74 22 -1 52 -4 65 -8 23 -6
22 -7 -22 -48 -25 -23 -47 -46 -50 -51 -4 -5 0 -33 8 -62 8 -30 12 -56 9 -59
-2 -3 -29 8 -60 25 l-55 29 -61 -33 -61 -33 7 33 c21 100 22 96 -29 148 l-48
48 44 6 c24 3 55 7 69 8 20 3 29 14 49 65 13 34 27 60 31 58 4 -2 15 -26 25
-52z m-4735 -446 l25 -62 60 -3 c33 -2 64 -7 68 -11 5 -5 -13 -27 -39 -50
l-48 -42 11 -62 c6 -34 9 -64 7 -66 -2 -2 -28 9 -59 25 l-55 29 -55 -29 c-30
-17 -57 -27 -60 -24 -4 3 -2 23 4 45 18 64 14 79 -34 124 -25 23 -45 46 -45
50 0 5 30 9 67 11 l68 3 25 62 c14 35 27 63 30 63 3 0 16 -28 30 -63z m4740
-2 l29 -65 60 0 c33 0 62 -4 65 -9 3 -5 -14 -26 -38 -46 -25 -20 -47 -43 -50
-50 -2 -7 2 -37 10 -67 7 -29 14 -57 14 -61 0 -4 -27 7 -60 25 l-60 33 -61
-33 -61 -33 6 33 c20 107 21 100 -28 148 -25 24 -46 48 -46 52 0 4 24 8 54 8
30 0 61 3 69 6 8 3 25 32 37 65 12 32 24 59 27 59 2 0 17 -29 33 -65z"/>
<path d="M4890 8732 c-77 -26 -97 -38 -158 -96 -90 -85 -142 -224 -127 -337 9
-66 56 -160 102 -206 76 -76 190 -109 290 -84 88 22 133 67 158 158 15 54 -34
139 -93 160 -23 9 -22 10 15 33 21 14 47 39 58 57 23 36 34 39 75 18 76 -39
101 -178 50 -279 -29 -57 -97 -121 -160 -149 -61 -28 -207 -35 -279 -14 -28 8
-51 13 -51 10 0 -2 30 -18 68 -36 62 -30 75 -32 172 -32 97 0 110 2 173 32
171 81 267 273 223 450 -28 114 -101 201 -206 244 -50 20 -176 17 -220 -6 -79
-40 -110 -88 -110 -169 0 -45 5 -60 27 -87 15 -17 43 -39 63 -47 l35 -15 -32
-9 c-29 -7 -63 -39 -89 -83 -8 -14 -17 -16 -39 -11 -65 16 -115 119 -101 209
9 54 52 131 93 168 67 58 130 82 229 87 63 3 107 0 143 -11 28 -8 51 -13 51
-10 0 2 -30 18 -66 35 -85 40 -209 48 -294 20z"/>
<path d="M4374 7410 c-56 -23 -73 -112 -29 -155 26 -27 80 -34 115 -15 22 12
44 70 31 83 -4 4 -25 7 -46 5 -47 -4 -61 -28 -16 -28 17 0 31 -4 31 -9 0 -15
-29 -33 -55 -33 -38 0 -55 20 -55 63 0 30 5 42 26 55 24 16 28 16 60 1 43 -21
44 -21 44 -1 0 8 -16 22 -35 30 -39 16 -42 16 -71 4z"/>
<path d="M6145 7411 c-61 -26 -80 -108 -36 -155 50 -54 151 -22 151 47 0 25
-3 27 -45 27 -33 0 -45 -4 -45 -15 0 -10 10 -15 30 -15 17 0 30 -4 30 -8 0
-18 -26 -32 -57 -32 -64 0 -83 80 -27 117 25 16 28 16 57 0 35 -20 57 -9 30
15 -23 21 -63 29 -88 19z"/>
<path d="M3810 7336 c0 -59 -3 -75 -16 -80 -9 -4 -23 -1 -31 5 -11 9 -17 9
-26 0 -16 -16 7 -31 48 -31 47 0 55 15 55 102 0 63 -3 78 -15 78 -12 0 -15
-15 -15 -74z"/>
<path d="M3900 7337 c0 -88 14 -107 78 -107 56 0 72 24 72 112 0 53 -3 68 -15
68 -11 0 -15 -17 -17 -71 -3 -61 -6 -73 -23 -79 -11 -4 -30 -4 -42 1 -21 8
-23 15 -23 79 0 56 -3 70 -15 70 -12 0 -15 -15 -15 -73z"/>
<path d="M4100 7320 c0 -72 3 -90 15 -90 10 0 15 16 17 66 l3 66 53 -66 c73
-91 82 -88 82 24 0 73 -3 90 -15 90 -12 0 -15 -14 -15 -67 l0 -67 -51 67 c-31
40 -59 67 -70 67 -17 0 -19 -9 -19 -90z"/>
<path d="M4600 7320 c0 -73 3 -90 15 -90 10 0 15 10 15 29 0 16 7 34 16 42 17
14 20 11 50 -43 8 -16 23 -28 34 -28 20 0 20 1 3 28 -9 15 -25 38 -35 51 -17
23 -17 24 13 62 26 33 28 39 12 39 -10 0 -35 -19 -55 -42 l-37 -43 -1 43 c0
30 -4 42 -15 42 -12 0 -15 -17 -15 -90z"/>
<path d="M4785 7363 c7 -27 19 -67 25 -90 9 -36 15 -43 35 -43 14 0 26 7 29
18 3 9 10 37 17 62 l12 45 17 -60 c14 -51 20 -60 41 -63 22 -3 26 3 42 65 10
37 20 78 23 91 5 15 2 22 -8 22 -10 0 -22 -25 -35 -72 -22 -77 -23 -77 -48 15
-23 79 -42 74 -70 -18 l-21 -70 -18 60 c-24 86 -24 85 -40 85 -13 0 -13 -6 -1
-47z"/>
<path d="M5078 7323 c-21 -53 -31 -90 -24 -92 5 -2 16 6 24 18 11 15 25 21 52
21 27 0 41 -6 52 -21 8 -12 19 -20 25 -18 18 7 -55 179 -77 179 -12 0 -27 -24
-52 -87z m82 -24 c0 -5 -13 -9 -30 -9 -34 0 -36 8 -14 52 l16 32 14 -33 c8
-18 14 -37 14 -42z"/>
<path d="M5250 7320 c0 -72 3 -90 15 -90 10 0 15 16 17 66 l3 66 53 -66 c73
-91 82 -88 82 24 0 73 -3 90 -15 90 -12 0 -15 -14 -15 -67 l0 -67 -51 67 c-31
40 -59 67 -70 67 -17 0 -19 -9 -19 -90z"/>
<path d="M5600 7341 c0 -78 -14 -100 -50 -81 -25 13 -35 8 -27 -15 8 -20 71
-20 91 1 22 22 23 164 1 164 -12 0 -15 -14 -15 -69z"/>
<path d="M5721 7388 c-5 -13 -20 -52 -35 -87 -31 -76 -30 -71 -10 -71 9 0 18
9 21 20 4 16 14 20 50 20 36 0 46 -4 50 -20 5 -18 33 -29 33 -13 0 4 -15 45
-32 90 -35 87 -59 107 -77 61z m44 -54 c19 -47 20 -44 -19 -44 l-34 0 15 40
c9 22 18 40 19 40 2 0 11 -16 19 -36z"/>
<path d="M5870 7320 c0 -72 3 -90 15 -90 10 0 15 16 17 65 l3 66 49 -66 c29
-38 57 -65 68 -65 16 0 18 10 18 90 0 72 -3 90 -15 90 -11 0 -15 -16 -17 -67
l-3 -66 -50 66 c-28 37 -58 67 -67 67 -16 0 -18 -11 -18 -90z"/>
<path d="M4260 6890 l0 -90 -95 0 -95 0 0 -55 0 -55 95 0 95 0 0 -120 0 -120
60 0 60 0 0 265 0 265 -60 0 -60 0 0 -90z"/>
<path d="M5210 6640 l0 -340 60 0 60 0 0 175 0 175 65 0 65 0 0 55 0 55 -65 0
-65 0 0 110 0 110 -60 0 -60 0 0 -340z"/>
<path d="M6190 6715 l0 -265 60 0 60 0 0 110 0 110 65 0 65 0 0 55 0 54 -62 3
-63 3 -3 98 -3 97 -59 0 -60 0 0 -265z"/>
<path d="M4570 6905 l0 -55 180 0 180 0 0 -64 c0 -35 -7 -83 -15 -106 -8 -24
-13 -46 -10 -49 3 -3 27 -13 52 -23 54 -20 52 -21 83 60 16 42 20 77 20 172
l0 120 -245 0 -245 0 0 -55z"/>
<path d="M3570 6895 l0 -55 85 0 c53 0 85 -4 85 -11 0 -5 -42 -73 -94 -149
l-94 -139 48 -31 c26 -16 49 -30 52 -30 3 0 45 58 94 130 l87 129 89 -130 89
-129 28 16 c15 9 37 24 49 33 l22 16 -95 142 c-52 79 -95 145 -95 148 0 3 38
5 85 5 l85 0 0 55 0 55 -260 0 -260 0 0 -55z"/>
<path d="M5540 6895 l0 -54 85 -3 84 -3 -99 -145 c-55 -79 -100 -147 -100
-150 0 -7 85 -60 96 -60 5 1 49 59 97 131 48 71 91 127 96 125 4 -3 47 -61 95
-130 l87 -126 48 33 c27 17 46 36 43 42 -3 5 -48 69 -99 141 -51 73 -93 135
-93 138 0 3 38 6 85 6 l85 0 0 55 0 55 -255 0 -255 0 0 -55z"/>
<path d="M4680 6645 l0 -105 -90 0 -90 0 0 -55 0 -55 285 0 c235 0 293 3 332
16 26 9 49 17 51 19 2 1 -2 24 -9 50 -11 44 -13 46 -38 40 -14 -4 -92 -9 -173
-12 l-148 -5 0 106 0 106 -60 0 -60 0 0 -105z"/>
<path d="M3980 6396 c-139 -71 -141 -274 -2 -349 108 -59 253 -25 310 72 57
97 21 226 -77 278 -62 32 -167 32 -231 -1z m155 -90 c54 -23 71 -77 40 -136
-34 -66 -149 -54 -169 18 -14 50 3 94 44 114 42 22 42 22 85 4z"/>
<path d="M5945 6401 c-140 -65 -155 -257 -27 -346 38 -26 54 -30 120 -33 92
-4 147 19 196 81 29 36 31 45 31 117 0 72 -2 81 -31 117 -45 56 -104 83 -184
83 -42 0 -79 -7 -105 -19z m175 -116 c35 -35 34 -95 -2 -131 -37 -38 -102 -38
-135 0 -44 52 -25 135 37 159 27 11 74 -3 100 -28z"/>
<path d="M4655 6358 c-3 -7 -4 -80 -2 -163 l2 -150 347 -3 346 -2 4 56 c1 31
1 58 -1 60 -2 2 -132 4 -288 4 l-283 0 0 105 0 105 -60 0 c-39 0 -62 -4 -65
-12z"/>
<path d="M5248 5724 c-5 -4 -8 -45 -8 -91 l0 -83 -142 0 c-79 0 -181 -3 -227
-7 l-84 -6 6 87 6 88 -78 -3 c-106 -5 -115 -13 -109 -105 l5 -71 -152 -7 c-83
-4 -163 -10 -178 -14 l-27 -7 52 -87 c41 -68 58 -88 75 -88 12 0 80 9 152 21
l130 21 50 -51 c66 -67 77 -66 86 9 7 59 8 60 38 61 18 1 107 4 200 8 184 7
179 9 152 -56 -17 -41 -20 -83 -5 -83 24 0 78 36 132 88 l58 55 143 -7 c78 -3
166 -9 195 -13 l52 -6 0 37 c0 77 -70 114 -235 125 -83 6 -90 7 -85 26 2 11 5
45 5 75 0 51 -2 56 -30 69 -33 17 -165 28 -177 15z"/>
<path d="M4911 5283 c-18 -36 -64 -111 -102 -165 l-70 -98 -64 0 c-61 0 -65
-1 -71 -26 -9 -34 1 -101 17 -121 12 -13 32 -15 134 -10 130 5 220 21 388 69
59 17 109 29 110 27 1 -2 13 -25 26 -51 13 -27 29 -48 36 -48 27 0 80 47 89
78 25 88 -79 215 -199 242 l-34 8 36 -70 c19 -38 33 -71 32 -73 -4 -3 -369
-22 -369 -18 0 1 41 34 91 74 92 73 149 138 149 169 0 28 -44 59 -99 70 -30 5
-57 10 -60 10 -4 0 -21 -30 -40 -67z"/>
<path d="M4397 4856 c-30 -62 -69 -136 -87 -164 -32 -48 -37 -51 -93 -61 -33
-6 -62 -12 -64 -15 -9 -9 18 -83 35 -99 10 -9 32 -19 48 -23 40 -8 187 18 297
52 l88 28 24 -30 c13 -16 23 -32 22 -35 -1 -3 -39 -39 -85 -81 -144 -132 -423
-307 -549 -344 -45 -13 -53 -19 -53 -40 0 -32 20 -31 163 6 260 67 562 243
813 474 l71 65 73 -82 c200 -227 501 -436 673 -467 66 -13 148 -1 211 30 38
18 146 114 146 130 0 4 -48 17 -107 30 -162 34 -360 94 -470 143 -94 41 -230
124 -220 133 3 3 47 14 98 24 52 11 127 31 168 45 41 14 75 24 76 22 1 -1 7
-16 14 -34 31 -78 93 -93 131 -30 26 42 25 76 -3 118 -25 38 -115 89 -158 89
l-28 0 15 -35 c7 -19 14 -36 14 -39 0 -2 -35 -7 -77 -10 -43 -4 -100 -9 -126
-12 l-48 -5 76 73 c84 79 130 147 121 176 -14 42 -103 90 -141 76 -8 -3 -23
-33 -35 -67 -11 -34 -42 -102 -68 -152 -41 -77 -53 -92 -82 -102 -33 -10 -35
-14 -32 -48 l3 -38 -38 31 c-21 16 -51 44 -67 61 -28 29 -29 32 -17 72 11 36
10 43 -6 61 -20 23 -129 78 -155 78 -9 0 -20 -9 -23 -20 -8 -25 -113 -166
-147 -198 l-25 -22 -24 37 c-24 38 -128 101 -147 89 -5 -3 -6 -27 -2 -54 l6
-50 -44 -6 c-25 -3 -74 -6 -110 -6 l-65 0 89 93 c50 50 96 107 103 125 13 30
12 35 -10 58 -27 29 -49 43 -90 54 -29 9 -29 8 -82 -104z"/>
<path d="M4938 4356 c-73 -82 -192 -177 -279 -224 -68 -37 -76 -46 -61 -69 11
-17 138 10 232 51 131 56 280 168 280 210 0 28 -33 64 -76 82 -18 8 -35 14
-36 14 -2 0 -29 -29 -60 -64z"/>
<path d="M5105 4199 c-125 -127 -343 -272 -477 -318 -51 -17 -80 -43 -65 -57
13 -14 172 17 290 57 193 63 367 166 431 252 19 26 19 30 6 55 -19 33 -75 72
-104 72 -13 0 -45 -24 -81 -61z"/>
<path d="M5315 4029 c-56 -70 -192 -189 -299 -261 -178 -119 -434 -228 -573
-245 -57 -6 -93 -29 -93 -58 0 -12 16 -15 83 -15 250 0 558 95 783 241 169
110 279 240 255 300 -13 36 -80 90 -108 89 -4 -1 -26 -24 -48 -51z"/>
<path d="M4760 3006 c-97 -13 -245 -43 -262 -53 -5 -2 5 -21 21 -41 49 -64 66
-146 35 -176 -14 -14 -82 -16 -597 -16 l-582 -1 -44 -37 -43 -38 110 -72 c470
-306 1074 -492 1602 -492 433 0 908 121 1341 341 114 58 256 143 330 198 l38
28 -48 36 -48 37 -580 0 c-437 0 -582 3 -591 12 -28 28 -1 152 41 187 10 7 17
19 17 26 0 12 -82 33 -220 55 -106 18 -402 21 -520 6z m-360 -454 c18 -11 36
-24 38 -30 6 -20 -28 -25 -47 -8 -10 9 -32 16 -49 16 -44 0 -72 -30 -72 -78 0
-43 18 -65 63 -76 23 -5 29 -3 37 19 13 35 13 35 -10 35 -14 0 -20 7 -20 21 0
16 4 19 23 14 12 -4 30 -9 40 -11 20 -6 21 -11 6 -70 -12 -45 -16 -48 -74 -44
-117 8 -154 169 -50 216 42 18 74 17 115 -4z m1333 12 c16 -17 -8 -34 -49 -34
-50 0 -74 -25 -74 -77 0 -43 30 -73 73 -73 46 0 61 13 53 44 -5 22 -10 25 -31
20 -43 -11 -31 23 12 35 20 6 39 9 41 7 2 -2 9 -27 17 -55 13 -50 13 -52 -10
-67 -57 -37 -148 -26 -179 21 -22 33 -28 86 -14 115 20 37 75 70 118 70 20 0
39 -3 43 -6z m-1188 -111 c-7 -38 -15 -85 -19 -105 -5 -30 -12 -38 -28 -38
-16 0 -19 5 -15 23 3 12 11 59 18 105 11 74 15 82 35 82 21 0 22 -1 9 -67z
m953 -30 c16 -126 16 -123 -12 -123 -17 0 -39 19 -81 71 -31 39 -58 69 -60 67
-2 -2 1 -25 5 -53 14 -83 12 -105 -8 -105 -16 0 -20 14 -30 89 -17 126 -17
131 13 131 18 0 38 -18 81 -70 31 -39 58 -69 59 -68 2 2 -1 26 -5 53 -14 82
-12 105 8 105 15 0 20 -15 30 -97z m-782 -5 c43 -87 51 -85 53 15 1 45 15 66
38 55 5 -1 4 -50 -2 -108 -9 -97 -12 -105 -32 -108 -19 -3 -29 10 -67 85 l-44
88 -6 -45 c-3 -25 -7 -58 -8 -75 -2 -21 -9 -31 -23 -33 -20 -3 -20 -1 -9 105
6 59 12 109 13 109 0 1 12 -1 24 -3 18 -4 33 -24 63 -85z m295 55 c5 -5 4 -14
0 -22 -7 -10 -13 -11 -30 -2 -15 9 -27 9 -41 1 -32 -17 -23 -36 28 -61 39 -20
47 -29 50 -55 6 -64 -74 -96 -137 -55 -12 8 -12 12 -2 24 10 13 16 13 38 2 19
-10 32 -11 45 -4 30 16 17 42 -29 63 -88 40 -60 134 36 121 19 -2 38 -8 42
-12z m219 3 c0 -17 -22 -26 -66 -26 -30 0 -34 -3 -34 -25 0 -23 3 -25 50 -25
69 0 69 -25 -1 -34 -47 -6 -50 -8 -47 -34 3 -26 6 -27 58 -27 42 0 55 -3 55
-15 0 -20 -134 -28 -146 -8 -5 7 -9 54 -9 105 0 103 -4 99 93 102 34 1 47 -3
47 -13z"/>
<path d="M2564 2601 c-16 -22 -73 -92 -128 -156 -54 -64 -97 -117 -95 -118 2
-2 20 -10 39 -19 45 -20 129 -87 261 -209 226 -208 349 -306 535 -429 415
-273 880 -431 1444 -492 147 -16 610 -15 760 0 456 49 835 158 1189 343 281
147 505 313 831 614 109 102 202 173 236 181 13 3 24 8 24 11 0 6 -249 301
-261 308 -4 3 -21 -1 -36 -9 -80 -41 -159 -58 -288 -63 -104 -4 -143 -2 -195
12 -36 9 -74 19 -86 22 -13 3 -43 -11 -85 -40 -367 -255 -827 -438 -1305 -518
-121 -21 -173 -24 -404 -24 -231 0 -283 3 -404 24 -481 80 -944 265 -1315 524
l-64 45 -51 -20 c-39 -16 -80 -22 -178 -26 -142 -5 -234 10 -326 53 -30 14
-57 25 -61 25 -4 0 -21 -18 -37 -39z m3908 -578 c42 -39 78 -118 78 -173 0
-65 -34 -110 -105 -137 -50 -19 -62 -16 -67 17 -4 26 -2 30 19 30 55 0 92 37
93 92 l0 36 -31 -29 c-61 -57 -149 -44 -182 27 -21 43 -21 67 -2 104 36 70
140 88 197 33z m-2691 -5 c21 -12 45 -36 54 -54 19 -40 19 -50 -1 -58 -28 -11
-44 -6 -44 12 0 45 -89 86 -111 51 -14 -23 -11 -29 32 -69 80 -73 97 -124 59
-173 -56 -71 -206 -18 -226 81 -6 30 -5 32 20 32 21 0 29 -7 37 -29 18 -50 87
-79 117 -49 20 20 14 34 -42 92 -59 62 -69 89 -50 134 23 56 87 68 155 30z
m250 -107 c4 -3 -18 -75 -48 -158 -41 -113 -60 -153 -72 -153 -43 1 -42 13 16
173 52 143 58 157 77 151 12 -3 24 -9 27 -13z m2109 -9 c34 -24 69 -98 76
-159 11 -93 -46 -162 -138 -166 -40 -2 -43 0 -46 26 -3 25 -1 27 33 27 47 0
95 44 95 89 l0 30 -25 -23 c-58 -54 -153 -37 -181 31 -17 40 -14 94 8 120 7 9
31 25 53 35 45 21 86 17 125 -10z m-1939 -42 c5 0 40 -64 77 -142 l68 -143 28
118 28 119 26 -7 c15 -4 28 -7 29 -8 0 -1 -16 -74 -36 -162 l-38 -160 -28 2
c-15 1 -29 3 -30 5 -1 2 -32 65 -68 141 -44 93 -67 133 -70 120 -3 -10 -15
-62 -28 -115 -16 -75 -25 -98 -38 -98 -43 1 -43 11 -6 166 43 182 42 177 61
170 9 -3 20 -6 25 -6z m1617 -55 c23 -28 29 -74 12 -105 -8 -15 -6 -20 10 -25
28 -9 53 -60 45 -94 -3 -16 -19 -41 -35 -56 -24 -23 -41 -30 -90 -33 -55 -4
-61 -2 -90 26 -34 34 -38 67 -15 112 12 24 13 30 1 37 -19 11 -36 47 -36 76 0
83 141 127 198 62z m-314 -175 c10 -80 20 -152 22 -161 3 -12 -4 -18 -26 -21
-16 -3 -30 -2 -31 1 0 3 -8 65 -17 136 l-17 130 -31 3 c-25 2 -33 9 -37 27 -3
21 0 25 27 30 62 10 81 11 87 6 3 -4 14 -71 23 -151z m-704 119 c34 -20 69
-56 70 -71 0 -4 -9 -12 -20 -18 -17 -9 -25 -6 -50 18 -93 94 -238 -9 -186
-132 27 -64 107 -84 169 -42 35 24 37 24 58 7 l21 -17 -31 -27 c-122 -102
-309 -2 -288 154 16 119 156 189 257 128z m415 -9 c11 -34 -3 -40 -91 -40
l-84 0 0 -40 0 -40 75 0 c72 0 75 -1 75 -24 0 -30 -16 -36 -91 -36 l-59 0 0
-45 0 -45 95 0 c95 0 95 0 95 -25 l0 -25 -125 0 -125 0 0 164 0 165 43 4 c23
2 74 4 114 5 64 2 72 0 78 -18z"/>
<path d="M6336 1978 c-47 -67 36 -134 92 -75 26 28 27 45 6 75 -10 15 -25 22
-49 22 -24 0 -39 -7 -49 -22z"/>
<path d="M6017 1852 c-51 -56 26 -133 88 -88 21 15 25 67 5 90 -17 22 -73 20
-93 -2z"/>
<path d="M5698 1769 c-25 -14 -23 -56 3 -69 46 -25 102 18 79 60 -12 22 -53
26 -82 9z"/>
<path d="M5740 1639 c-42 -17 -53 -55 -24 -83 21 -22 56 -20 88 5 31 25 33 42
6 69 -22 22 -33 23 -70 9z"/>
<path d="M2289 2242 c-15 -2 -37 -14 -50 -28 -19 -21 -24 -36 -23 -82 0 -74
25 -122 110 -212 129 -136 326 -265 663 -432 l204 -101 53 59 52 59 -31 19
c-220 135 -404 276 -642 491 -229 207 -271 235 -336 227z"/>
<path d="M7625 2223 c-40 -21 -84 -58 -250 -208 -225 -205 -431 -362 -641
-491 l-32 -19 53 -58 52 -59 184 90 c355 175 553 304 688 448 109 116 140 227
80 290 -27 29 -87 32 -134 7z"/>
<path d="M2349 1599 c-128 -137 -133 -144 -88 -135 91 16 329 18 468 2 79 -9
146 -14 148 -12 2 2 -50 33 -116 69 -66 36 -161 93 -212 126 -50 34 -92 61
-94 61 -2 0 -50 -50 -106 -111z"/>
<path d="M7495 1679 c-64 -46 -196 -126 -297 -179 -51 -27 -86 -50 -78 -50 8
0 74 7 145 15 154 18 314 19 420 4 42 -6 79 -8 82 -6 5 6 -216 247 -226 246
-3 0 -24 -14 -46 -30z"/>
</g>
</svg>
